<?xml version="1.0" encoding="utf-8"?>
<!-- Generator: Adobe Illustrator 15.0.2, SVG Export Plug-In . SVG Version: 6.00 Build 0)  -->
<!DOCTYPE svg PUBLIC "-//W3C//DTD SVG 1.1//EN" "http://www.w3.org/Graphics/SVG/1.1/DTD/svg11.dtd">
<svg version="1.1" id="Calque_1" xmlns="http://www.w3.org/2000/svg" xmlns:xlink="http://www.w3.org/1999/xlink" x="0px" y="0px"
	 width="100px" height="100px" viewBox="0 0 100 100" enable-background="new 0 0 100 100" xml:space="preserve">
<path d="M64.837,29.954l9.92-2.219l5.599-9.888l-11.934,2.553l2.556-4.514l-1.461-4.176l-3.359,5.933l-4.795,8.469l-0.235-0.863
	l4.743-8.377l-3.313-9.103l-5.621,9.927l3.225,9.61c0,0,0,0-10.38,7.181c-2.576,1.782-5.374,5.34-6.259,6.904
	c-5.599,9.888-16.797,29.666-16.797,29.666c-6.718,11.866,2.741,15.917,2.741,15.917l0,0c0,0,8.34,6.027,15.058-5.839
	c0,0,11.198-19.777,16.796-29.666c0.886-1.563,2.497-5.793,2.7-8.919C64.837,29.954,64.837,29.954,64.837,29.954z"/>
</svg>
